<?xml version="1.0" encoding="UTF-8" standalone="no"?>
<svg
   xmlns:dc="http://purl.org/dc/elements/1.1/"
   xmlns:cc="http://creativecommons.org/ns#"
   xmlns:rdf="http://www.w3.org/1999/02/22-rdf-syntax-ns#"
   xmlns:svg="http://www.w3.org/2000/svg"
   xmlns="http://www.w3.org/2000/svg"
   xmlns:xlink="http://www.w3.org/1999/xlink"
   id="svg180"
   viewBox="0 0 12.633478 5.9739999"
   height="39.677811"
   width="83.908546"
   version="1.2">
  <metadata
     id="metadata186">
    <rdf:RDF>
      <cc:Work
         rdf:about="">
        <dc:format>image/svg+xml</dc:format>
        <dc:type
           rdf:resource="http://purl.org/dc/dcmitype/StillImage" />
        <dc:title></dc:title>
      </cc:Work>
    </rdf:RDF>
  </metadata>
  <defs
     id="defs184" />
  <style
     id="style134"
     text="style/css"><![CDATA[
tspan { white-space: pre; }
]]></style>
  <!-- Page: 1/1 -->
  <text
     y="-1"
     x="-2.0000501"
     id="text138"
     fill="currentColor"
     text-anchor="start"
     font-size="2.2001px"
     font-family="serif"><tspan
       id="tspan136" /></text>
  <rect
     id="rect140"
     fill="currentColor"
     ry="0.039999999"
     height="5.0039001"
     width="0.13"
     y="0.23999994"
     x="12.50345" />
  <a
     transform="translate(-7.69065,-3.8453)"
     id="a144"
     xlink:href="textedit:///Users/jwy/Documents/GitHub/jwy_opus/public/pieces/sf003/notation/accel_feathered.ly:39:14:15"
     style="color:inherit">
    <path
       id="path142"
       fill="currentColor"
       d="m 218,136 c 55,0 108,-28 108,-89 0,-71 -55,-121 -102,-149 -35,-21 -75,-34 -116,-34 -55,0 -108,28 -108,89 0,71 55,121 102,149 35,21 75,34 116,34 z"
       transform="matrix(0.004,0,0,-0.004,12.2972,9.2753)" />
  </a>
  <rect
     id="rect146"
     fill="currentColor"
     ry="0.039999999"
     height="5.0039001"
     width="0.13"
     y="0.23999994"
     x="5.7807498" />
  <a
     transform="translate(-7.69065,-3.8453)"
     id="a150"
     xlink:href="textedit:///Users/jwy/Documents/GitHub/jwy_opus/public/pieces/sf003/notation/accel_feathered.ly:39:20:21"
     style="color:inherit">
    <path
       id="path148"
       fill="currentColor"
       d="m 218,136 c 55,0 108,-28 108,-89 0,-71 -55,-121 -102,-149 -35,-21 -75,-34 -116,-34 -55,0 -108,28 -108,89 0,71 55,121 102,149 35,21 75,34 116,34 z"
       transform="matrix(0.004,0,0,-0.004,19.0199,9.2753)" />
  </a>
  <a
     transform="translate(-7.69065,-3.8453)"
     id="a154"
     xlink:href="textedit:///Users/jwy/Documents/GitHub/jwy_opus/public/pieces/sf003/notation/accel_feathered.ly:39:16:17"
     style="color:inherit">
    <path
       id="path152"
       fill="currentColor"
       d="m 218,136 c 55,0 108,-28 108,-89 0,-71 -55,-121 -102,-149 -35,-21 -75,-34 -116,-34 -55,0 -108,28 -108,89 0,71 55,121 102,149 35,21 75,34 116,34 z"
       transform="matrix(0.004,0,0,-0.004,15.3683,9.2753)" />
  </a>
  <rect
     id="rect156"
     fill="currentColor"
     ry="0.039999999"
     height="5.0039001"
     width="0.13"
     y="0.23999994"
     x="8.8518496" />
  <a
     transform="translate(-7.69065,-3.8453)"
     id="a160"
     xlink:href="textedit:///Users/jwy/Documents/GitHub/jwy_opus/public/pieces/sf003/notation/accel_feathered.ly:39:18:19"
     style="color:inherit">
    <path
       id="path158"
       fill="currentColor"
       d="m 218,136 c 55,0 108,-28 108,-89 0,-71 -55,-121 -102,-149 -35,-21 -75,-34 -116,-34 -55,0 -108,28 -108,89 0,71 55,121 102,149 35,21 75,34 116,34 z"
       transform="matrix(0.004,0,0,-0.004,17.4157,9.2753)" />
  </a>
  <a
     transform="translate(-7.69065,-3.8453)"
     id="a170"
     xlink:href="textedit:///Users/jwy/Documents/GitHub/jwy_opus/public/pieces/sf003/notation/accel_feathered.ly:39:12:13"
     style="color:inherit">
    <polygon
       id="polygon162"
       points="0.04,-0.2 11.4193,-0.2 11.4193,0.2 0.04,0.2 "
       stroke="currentColor"
       fill="currentColor"
       stroke-width="0.08"
       stroke-linecap="round"
       stroke-linejoin="round"
       transform="translate(8.8648,4.0853)" />
    <polygon
       id="polygon164"
       points="0.04,-0.2 11.4193,0.6733 11.4193,1.0733 0.04,0.2 "
       stroke="currentColor"
       fill="currentColor"
       stroke-width="0.08"
       stroke-linecap="round"
       stroke-linejoin="round"
       transform="translate(8.8648,4.0853)" />
    <polygon
       id="polygon166"
       points="0.04,-0.2 11.4193,1.5467 11.4193,1.9467 0.04,0.2 "
       stroke="currentColor"
       fill="currentColor"
       stroke-width="0.08"
       stroke-linecap="round"
       stroke-linejoin="round"
       transform="translate(8.8648,4.0853)" />
    <polygon
       id="polygon168"
       points="0.04,-0.2 11.4193,2.42 11.4193,2.82 0.04,0.2 "
       stroke="currentColor"
       fill="currentColor"
       stroke-width="0.08"
       stroke-linecap="round"
       stroke-linejoin="round"
       transform="translate(8.8648,4.0853)" />
  </a>
  <a
     transform="translate(-7.69065,-3.8453)"
     id="a174"
     xlink:href="textedit:///Users/jwy/Documents/GitHub/jwy_opus/public/pieces/sf003/notation/accel_feathered.ly:39:9:10"
     style="color:inherit">
    <path
       id="path172"
       fill="currentColor"
       d="m 218,136 c 55,0 108,-28 108,-89 0,-71 -55,-121 -102,-149 -35,-21 -75,-34 -116,-34 -55,0 -108,28 -108,89 0,71 55,121 102,149 35,21 75,34 116,34 z"
       transform="matrix(0.004,0,0,-0.004,7.6906,9.2753)" />
  </a>
  <rect
     id="rect176"
     fill="currentColor"
     ry="0.039999999"
     height="5.0039001"
     width="0.13"
     y="0.23999994"
     x="1.17415" />
  <rect
     id="rect178"
     fill="currentColor"
     ry="0.039999999"
     height="5.0039001"
     width="0.13"
     y="0.23999994"
     x="10.89925" />
</svg>
