<svg xmlns="http://www.w3.org/2000/svg" xmlns:xlink="http://www.w3.org/1999/xlink" version="1.2" width="100.00mm" height="50.00mm" viewBox="0 0 56.9055 28.4528">
<style text="style/css">
<![CDATA[
tspan { white-space: pre; }
]]>
</style>
<!-- Page: 1/1 -->
<text transform="translate(5.6906, 2.8453)" font-family="serif" font-size="2.2001" text-anchor="start" fill="currentColor">
<tspan/>
</text>
<rect transform="translate(20.2591, 9.2753)" x="-0.0650" y="-5.1900" width="0.1300" height="5.0039" ry="0.0400" fill="currentColor"/>
<a style="color:inherit;" xlink:href="textedit:///Users/jwy/Documents/GitHub/jwy_opus/public/pieces/sf003/notation/accel_feathered.ly:39:14:15">
<path transform="translate(12.2972, 9.2753) scale(0.0040, -0.0040)" d="M218 136c55 0 108 -28 108 -89c0 -71 -55 -121 -102 -149c-35 -21 -75 -34 -116 -34c-55 0 -108 28 -108 89c0 71 55 121 102 149c35 21 75 34 116 34z" fill="currentColor"/>
</a>
<rect transform="translate(13.5364, 9.2753)" x="-0.0650" y="-5.1900" width="0.1300" height="5.0039" ry="0.0400" fill="currentColor"/>
<a style="color:inherit;" xlink:href="textedit:///Users/jwy/Documents/GitHub/jwy_opus/public/pieces/sf003/notation/accel_feathered.ly:39:20:21">
<path transform="translate(19.0199, 9.2753) scale(0.0040, -0.0040)" d="M218 136c55 0 108 -28 108 -89c0 -71 -55 -121 -102 -149c-35 -21 -75 -34 -116 -34c-55 0 -108 28 -108 89c0 71 55 121 102 149c35 21 75 34 116 34z" fill="currentColor"/>
</a>
<a style="color:inherit;" xlink:href="textedit:///Users/jwy/Documents/GitHub/jwy_opus/public/pieces/sf003/notation/accel_feathered.ly:39:16:17">
<path transform="translate(15.3683, 9.2753) scale(0.0040, -0.0040)" d="M218 136c55 0 108 -28 108 -89c0 -71 -55 -121 -102 -149c-35 -21 -75 -34 -116 -34c-55 0 -108 28 -108 89c0 71 55 121 102 149c35 21 75 34 116 34z" fill="currentColor"/>
</a>
<rect transform="translate(16.6075, 9.2753)" x="-0.0650" y="-5.1900" width="0.1300" height="5.0039" ry="0.0400" fill="currentColor"/>
<a style="color:inherit;" xlink:href="textedit:///Users/jwy/Documents/GitHub/jwy_opus/public/pieces/sf003/notation/accel_feathered.ly:39:18:19">
<path transform="translate(17.4157, 9.2753) scale(0.0040, -0.0040)" d="M218 136c55 0 108 -28 108 -89c0 -71 -55 -121 -102 -149c-35 -21 -75 -34 -116 -34c-55 0 -108 28 -108 89c0 71 55 121 102 149c35 21 75 34 116 34z" fill="currentColor"/>
</a>
<a style="color:inherit;" xlink:href="textedit:///Users/jwy/Documents/GitHub/jwy_opus/public/pieces/sf003/notation/accel_feathered.ly:39:12:13">
<polygon transform="translate(8.8648, 4.0853)" stroke-linejoin="round" stroke-linecap="round" stroke-width="0.0800" fill="currentColor" stroke="currentColor" points="11.4193 -0.2000 11.4193 0.2000 0.0400 0.2000 0.0400 -0.2000"/>
<polygon transform="translate(8.8648, 4.0853)" stroke-linejoin="round" stroke-linecap="round" stroke-width="0.0800" fill="currentColor" stroke="currentColor" points="11.4193 0.6733 11.4193 1.0733 0.0400 0.2000 0.0400 -0.2000"/>
<polygon transform="translate(8.8648, 4.0853)" stroke-linejoin="round" stroke-linecap="round" stroke-width="0.0800" fill="currentColor" stroke="currentColor" points="11.4193 1.5467 11.4193 1.9467 0.0400 0.2000 0.0400 -0.2000"/>
<polygon transform="translate(8.8648, 4.0853)" stroke-linejoin="round" stroke-linecap="round" stroke-width="0.0800" fill="currentColor" stroke="currentColor" points="11.4193 2.4200 11.4193 2.8200 0.0400 0.2000 0.0400 -0.2000"/>
</a>
<a style="color:inherit;" xlink:href="textedit:///Users/jwy/Documents/GitHub/jwy_opus/public/pieces/sf003/notation/accel_feathered.ly:39:9:10">
<path transform="translate(7.6906, 9.2753) scale(0.0040, -0.0040)" d="M218 136c55 0 108 -28 108 -89c0 -71 -55 -121 -102 -149c-35 -21 -75 -34 -116 -34c-55 0 -108 28 -108 89c0 71 55 121 102 149c35 21 75 34 116 34z" fill="currentColor"/>
</a>
<rect transform="translate(8.9298, 9.2753)" x="-0.0650" y="-5.1900" width="0.1300" height="5.0039" ry="0.0400" fill="currentColor"/>
<rect transform="translate(18.6549, 9.2753)" x="-0.0650" y="-5.1900" width="0.1300" height="5.0039" ry="0.0400" fill="currentColor"/>
</svg>
