<?xml version="1.0" encoding="UTF-8" standalone="no"?>
<svg
   xmlns:dc="http://purl.org/dc/elements/1.1/"
   xmlns:cc="http://creativecommons.org/ns#"
   xmlns:rdf="http://www.w3.org/1999/02/22-rdf-syntax-ns#"
   xmlns:svg="http://www.w3.org/2000/svg"
   xmlns="http://www.w3.org/2000/svg"
   xmlns:xlink="http://www.w3.org/1999/xlink"
   id="svg615"
   viewBox="0 0 18.832166 5.9739999"
   height="39.677811"
   width="125.07876"
   version="1.2">
  <metadata
     id="metadata621">
    <rdf:RDF>
      <cc:Work
         rdf:about="">
        <dc:format>image/svg+xml</dc:format>
        <dc:type
           rdf:resource="http://purl.org/dc/dcmitype/StillImage" />
        <dc:title></dc:title>
      </cc:Work>
    </rdf:RDF>
  </metadata>
  <defs
     id="defs619" />
  <style
     id="style557"
     text="style/css"><![CDATA[
tspan { white-space: pre; }
]]></style>
  <!-- Page: 1/1 -->
  <text
     y="-1"
     x="-2.0000501"
     id="text561"
     fill="currentColor"
     text-anchor="start"
     font-size="2.2001px"
     font-family="serif"><tspan
       id="tspan559" /></text>
  <rect
     id="rect563"
     fill="currentColor"
     ry="0.039999999"
     height="5.0039001"
     width="0.13"
     y="0.23999994"
     x="11.08765" />
  <a
     transform="translate(-7.69065,-3.8453)"
     id="a567"
     xlink:href="textedit:///Users/jwy/Documents/GitHub/jwy_opus/public/libraries/notation/accel_feathered.ly:39:24:25"
     style="color:inherit">
    <path
       id="path565"
       fill="currentColor"
       d="m 218,136 c 55,0 108,-28 108,-89 0,-71 -55,-121 -102,-149 -35,-21 -75,-34 -116,-34 -55,0 -108,28 -108,89 0,71 55,121 102,149 35,21 75,34 116,34 z"
       transform="matrix(0.004,0,0,-0.004,25.2185,9.2753)" />
  </a>
  <a
     transform="translate(-7.69065,-3.8453)"
     id="a571"
     xlink:href="textedit:///Users/jwy/Documents/GitHub/jwy_opus/public/libraries/notation/accel_feathered.ly:39:14:15"
     style="color:inherit">
    <path
       id="path569"
       fill="currentColor"
       d="m 218,136 c 55,0 108,-28 108,-89 0,-71 -55,-121 -102,-149 -35,-21 -75,-34 -116,-34 -55,0 -108,28 -108,89 0,71 55,121 102,149 35,21 75,34 116,34 z"
       transform="matrix(0.004,0,0,-0.004,13.6387,9.2753)" />
  </a>
  <rect
     id="rect573"
     fill="currentColor"
     ry="0.039999999"
     height="5.0039001"
     width="0.13"
     y="0.23999994"
     x="7.1222501" />
  <a
     transform="translate(-7.69065,-3.8453)"
     id="a577"
     xlink:href="textedit:///Users/jwy/Documents/GitHub/jwy_opus/public/libraries/notation/accel_feathered.ly:39:16:17"
     style="color:inherit">
    <path
       id="path575"
       fill="currentColor"
       d="m 218,136 c 55,0 108,-28 108,-89 0,-71 -55,-121 -102,-149 -35,-21 -75,-34 -116,-34 -55,0 -108,28 -108,89 0,71 55,121 102,149 35,21 75,34 116,34 z"
       transform="matrix(0.004,0,0,-0.004,17.6041,9.2753)" />
  </a>
  <rect
     id="rect579"
     fill="currentColor"
     ry="0.039999999"
     height="5.0039001"
     width="0.13"
     y="0.23999994"
     x="18.70215" />
  <a
     transform="translate(-7.69065,-3.8453)"
     id="a583"
     xlink:href="textedit:///Users/jwy/Documents/GitHub/jwy_opus/public/libraries/notation/accel_feathered.ly:39:18:19"
     style="color:inherit">
    <path
       id="path581"
       fill="currentColor"
       d="m 218,136 c 55,0 108,-28 108,-89 0,-71 -55,-121 -102,-149 -35,-21 -75,-34 -116,-34 -55,0 -108,28 -108,89 0,71 55,121 102,149 35,21 75,34 116,34 z"
       transform="matrix(0.004,0,0,-0.004,20.2477,9.2753)" />
  </a>
  <rect
     id="rect585"
     fill="currentColor"
     ry="0.039999999"
     height="5.0039001"
     width="0.13"
     y="0.23999994"
     x="13.73125" />
  <a
     transform="translate(-7.69065,-3.8453)"
     id="a589"
     xlink:href="textedit:///Users/jwy/Documents/GitHub/jwy_opus/public/libraries/notation/accel_feathered.ly:39:20:21"
     style="color:inherit">
    <path
       id="path587"
       fill="currentColor"
       d="m 218,136 c 55,0 108,-28 108,-89 0,-71 -55,-121 -102,-149 -35,-21 -75,-34 -116,-34 -55,0 -108,28 -108,89 0,71 55,121 102,149 35,21 75,34 116,34 z"
       transform="matrix(0.004,0,0,-0.004,22.0101,9.2753)" />
  </a>
  <rect
     id="rect591"
     fill="currentColor"
     ry="0.039999999"
     height="5.0039001"
     width="0.13"
     y="0.23999994"
     x="15.49365" />
  <a
     transform="translate(-7.69065,-3.8453)"
     id="a601"
     xlink:href="textedit:///Users/jwy/Documents/GitHub/jwy_opus/public/libraries/notation/accel_feathered.ly:39:12:13"
     style="color:inherit">
    <polygon
       id="polygon593"
       points="0.04,-0.2 17.618,-0.2 17.618,0.2 0.04,0.2 "
       stroke="currentColor"
       fill="currentColor"
       stroke-width="0.08"
       stroke-linecap="round"
       stroke-linejoin="round"
       transform="translate(8.8648,4.0853)" />
    <polygon
       id="polygon595"
       points="0.04,-0.2 17.618,0.6733 17.618,1.0733 0.04,0.2 "
       stroke="currentColor"
       fill="currentColor"
       stroke-width="0.08"
       stroke-linecap="round"
       stroke-linejoin="round"
       transform="translate(8.8648,4.0853)" />
    <polygon
       id="polygon597"
       points="0.04,-0.2 17.618,1.5467 17.618,1.9467 0.04,0.2 "
       stroke="currentColor"
       fill="currentColor"
       stroke-width="0.08"
       stroke-linecap="round"
       stroke-linejoin="round"
       transform="translate(8.8648,4.0853)" />
    <polygon
       id="polygon599"
       points="0.04,-0.2 17.618,2.42 17.618,2.82 0.04,0.2 "
       stroke="currentColor"
       fill="currentColor"
       stroke-width="0.08"
       stroke-linecap="round"
       stroke-linejoin="round"
       transform="translate(8.8648,4.0853)" />
  </a>
  <a
     transform="translate(-7.69065,-3.8453)"
     id="a605"
     xlink:href="textedit:///Users/jwy/Documents/GitHub/jwy_opus/public/libraries/notation/accel_feathered.ly:39:9:10"
     style="color:inherit">
    <path
       id="path603"
       fill="currentColor"
       d="m 218,136 c 55,0 108,-28 108,-89 0,-71 -55,-121 -102,-149 -35,-21 -75,-34 -116,-34 -55,0 -108,28 -108,89 0,71 55,121 102,149 35,21 75,34 116,34 z"
       transform="matrix(0.004,0,0,-0.004,7.6906,9.2753)" />
  </a>
  <rect
     id="rect607"
     fill="currentColor"
     ry="0.039999999"
     height="5.0039001"
     width="0.13"
     y="0.23999994"
     x="1.17415" />
  <a
     transform="translate(-7.69065,-3.8453)"
     id="a611"
     xlink:href="textedit:///Users/jwy/Documents/GitHub/jwy_opus/public/libraries/notation/accel_feathered.ly:39:22:23"
     style="color:inherit">
    <path
       id="path609"
       fill="currentColor"
       d="m 218,136 c 55,0 108,-28 108,-89 0,-71 -55,-121 -102,-149 -35,-21 -75,-34 -116,-34 -55,0 -108,28 -108,89 0,71 55,121 102,149 35,21 75,34 116,34 z"
       transform="matrix(0.004,0,0,-0.004,23.6143,9.2753)" />
  </a>
  <rect
     id="rect613"
     fill="currentColor"
     ry="0.039999999"
     height="5.0039001"
     width="0.13"
     y="0.23999994"
     x="17.097851" />
</svg>
