<?xml version="1.0" encoding="UTF-8" standalone="no"?>
<svg
   xmlns:dc="http://purl.org/dc/elements/1.1/"
   xmlns:cc="http://creativecommons.org/ns#"
   xmlns:rdf="http://www.w3.org/1999/02/22-rdf-syntax-ns#"
   xmlns:svg="http://www.w3.org/2000/svg"
   xmlns="http://www.w3.org/2000/svg"
   xmlns:xlink="http://www.w3.org/1999/xlink"
   id="svg835"
   viewBox="0 0 18.400167 5.9740993"
   height="10.498262mm"
   width="32.334602mm"
   version="1.2">
  <metadata
     id="metadata841">
    <rdf:RDF>
      <cc:Work
         rdf:about="">
        <dc:format>image/svg+xml</dc:format>
        <dc:type
           rdf:resource="http://purl.org/dc/dcmitype/StillImage" />
        <dc:title></dc:title>
      </cc:Work>
    </rdf:RDF>
  </metadata>
  <defs
     id="defs839" />
  <style
     id="style777"
     text="style/css"><![CDATA[
tspan { white-space: pre; }
]]></style>
  <!-- Page: 1/1 -->
  <text
     y="-0.9999004"
     x="-2.0000165"
     id="text781"
     fill="currentColor"
     text-anchor="start"
     font-size="2.2001px"
     font-family="serif"><tspan
       id="tspan779" /></text>
  <rect
     id="rect783"
     fill="currentColor"
     ry="0.039999999"
     height="5.0039001"
     width="0.13"
     y="0.24009949"
     x="4.3825836" />
  <a
     transform="translate(-7.6906164,-3.8452004)"
     id="a787"
     xlink:href="textedit:///Users/jwy/Documents/GitHub/jwy_opus/public/libraries/notation/decel_feathered.ly:39:24:25"
     style="color:inherit">
    <path
       id="path785"
       fill="currentColor"
       d="m 218,136 c 55,0 108,-28 108,-89 0,-71 -55,-121 -102,-149 -35,-21 -75,-34 -116,-34 -55,0 -108,28 -108,89 0,71 55,121 102,149 35,21 75,34 116,34 z"
       transform="matrix(0.004,0,0,-0.004,24.7866,9.2753)" />
  </a>
  <a
     transform="translate(-7.6906164,-3.8452004)"
     id="a791"
     xlink:href="textedit:///Users/jwy/Documents/GitHub/jwy_opus/public/libraries/notation/decel_feathered.ly:39:14:15"
     style="color:inherit">
    <path
       id="path789"
       fill="currentColor"
       d="m 218,136 c 55,0 108,-28 108,-89 0,-71 -55,-121 -102,-149 -35,-21 -75,-34 -116,-34 -55,0 -108,28 -108,89 0,71 55,121 102,149 35,21 75,34 116,34 z"
       transform="matrix(0.004,0,0,-0.004,9.2948,9.2753)" />
  </a>
  <rect
     id="rect793"
     fill="currentColor"
     ry="0.039999999"
     height="5.0039001"
     width="0.13"
     y="0.24009949"
     x="2.7783837" />
  <a
     transform="translate(-7.6906164,-3.8452004)"
     id="a797"
     xlink:href="textedit:///Users/jwy/Documents/GitHub/jwy_opus/public/libraries/notation/decel_feathered.ly:39:16:17"
     style="color:inherit">
    <path
       id="path795"
       fill="currentColor"
       d="m 218,136 c 55,0 108,-28 108,-89 0,-71 -55,-121 -102,-149 -35,-21 -75,-34 -116,-34 -55,0 -108,28 -108,89 0,71 55,121 102,149 35,21 75,34 116,34 z"
       transform="matrix(0.004,0,0,-0.004,10.899,9.2753)" />
  </a>
  <rect
     id="rect799"
     fill="currentColor"
     ry="0.039999999"
     height="5.0039001"
     width="0.13"
     y="0.24009949"
     x="18.270184" />
  <a
     transform="translate(-7.6906164,-3.8452004)"
     id="a803"
     xlink:href="textedit:///Users/jwy/Documents/GitHub/jwy_opus/public/libraries/notation/decel_feathered.ly:39:18:19"
     style="color:inherit">
    <path
       id="path801"
       fill="currentColor"
       d="m 218,136 c 55,0 108,-28 108,-89 0,-71 -55,-121 -102,-149 -35,-21 -75,-34 -116,-34 -55,0 -108,28 -108,89 0,71 55,121 102,149 35,21 75,34 116,34 z"
       transform="matrix(0.004,0,0,-0.004,12.5032,9.2753)" />
  </a>
  <rect
     id="rect805"
     fill="currentColor"
     ry="0.039999999"
     height="5.0039001"
     width="0.13"
     y="0.24009949"
     x="5.9867835" />
  <a
     transform="translate(-7.6906164,-3.8452004)"
     id="a809"
     xlink:href="textedit:///Users/jwy/Documents/GitHub/jwy_opus/public/libraries/notation/decel_feathered.ly:39:20:21"
     style="color:inherit">
    <path
       id="path807"
       fill="currentColor"
       d="m 218,136 c 55,0 108,-28 108,-89 0,-71 -55,-121 -102,-149 -35,-21 -75,-34 -116,-34 -55,0 -108,28 -108,89 0,71 55,121 102,149 35,21 75,34 116,34 z"
       transform="matrix(0.004,0,0,-0.004,14.5369,9.2753)" />
  </a>
  <rect
     id="rect811"
     fill="currentColor"
     ry="0.039999999"
     height="5.0039001"
     width="0.13"
     y="0.24009949"
     x="8.020483" />
  <a
     transform="translate(-7.6906164,-3.8452004)"
     id="a821"
     xlink:href="textedit:///Users/jwy/Documents/GitHub/jwy_opus/public/libraries/notation/decel_feathered.ly:39:12:13"
     style="color:inherit">
    <polygon
       id="polygon813"
       points="17.186,-0.2 17.186,0.2 0.04,0.2 0.04,-0.2 "
       stroke="currentColor"
       fill="currentColor"
       stroke-width="0.08"
       stroke-linecap="round"
       stroke-linejoin="round"
       transform="translate(8.8648,4.0853)" />
    <polygon
       id="polygon815"
       points="17.186,-1.0733 17.186,-0.6733 0.04,0.2 0.04,-0.2 "
       stroke="currentColor"
       fill="currentColor"
       stroke-width="0.08"
       stroke-linecap="round"
       stroke-linejoin="round"
       transform="translate(8.8648,4.9586)" />
    <polygon
       id="polygon817"
       points="17.186,-1.9467 17.186,-1.5467 0.04,0.2 0.04,-0.2 "
       stroke="currentColor"
       fill="currentColor"
       stroke-width="0.08"
       stroke-linecap="round"
       stroke-linejoin="round"
       transform="translate(8.8648,5.8319)" />
    <polygon
       id="polygon819"
       points="17.186,-2.82 17.186,-2.42 0.04,0.2 0.04,-0.2 "
       stroke="currentColor"
       fill="currentColor"
       stroke-width="0.08"
       stroke-linecap="round"
       stroke-linejoin="round"
       transform="translate(8.8648,6.7053)" />
  </a>
  <a
     transform="translate(-7.6906164,-3.8452004)"
     id="a825"
     xlink:href="textedit:///Users/jwy/Documents/GitHub/jwy_opus/public/libraries/notation/decel_feathered.ly:39:9:10"
     style="color:inherit">
    <path
       id="path823"
       fill="currentColor"
       d="m 218,136 c 55,0 108,-28 108,-89 0,-71 -55,-121 -102,-149 -35,-21 -75,-34 -116,-34 -55,0 -108,28 -108,89 0,71 55,121 102,149 35,21 75,34 116,34 z"
       transform="matrix(0.004,0,0,-0.004,7.6906,9.2753)" />
  </a>
  <rect
     id="rect827"
     fill="currentColor"
     ry="0.039999999"
     height="5.0039001"
     width="0.13"
     y="0.24009949"
     x="1.1741836" />
  <a
     transform="translate(-7.6906164,-3.8452004)"
     id="a831"
     xlink:href="textedit:///Users/jwy/Documents/GitHub/jwy_opus/public/libraries/notation/decel_feathered.ly:39:22:23"
     style="color:inherit">
    <path
       id="path829"
       fill="currentColor"
       d="m 218,136 c 55,0 108,-28 108,-89 0,-71 -55,-121 -102,-149 -35,-21 -75,-34 -116,-34 -55,0 -108,28 -108,89 0,71 55,121 102,149 35,21 75,34 116,34 z"
       transform="matrix(0.004,0,0,-0.004,18.1975,9.2753)" />
  </a>
  <rect
     id="rect833"
     fill="currentColor"
     ry="0.039999999"
     height="5.0039001"
     width="0.13"
     y="0.24009949"
     x="11.681084" />
</svg>
