<?xml version="1.0" encoding="UTF-8" standalone="no"?>
<svg
   xmlns:dc="http://purl.org/dc/elements/1.1/"
   xmlns:cc="http://creativecommons.org/ns#"
   xmlns:rdf="http://www.w3.org/1999/02/22-rdf-syntax-ns#"
   xmlns:svg="http://www.w3.org/2000/svg"
   xmlns="http://www.w3.org/2000/svg"
   xmlns:xlink="http://www.w3.org/1999/xlink"
   id="svg386"
   viewBox="0 0 12.116679 5.9740992"
   height="39.678471"
   width="80.476097"
   version="1.2">
  <metadata
     id="metadata392">
    <rdf:RDF>
      <cc:Work
         rdf:about="">
        <dc:format>image/svg+xml</dc:format>
        <dc:type
           rdf:resource="http://purl.org/dc/dcmitype/StillImage" />
        <dc:title></dc:title>
      </cc:Work>
    </rdf:RDF>
  </metadata>
  <defs
     id="defs390" />
  <style
     id="style340"
     text="style/css"><![CDATA[
tspan { white-space: pre; }
]]></style>
  <!-- Page: 1/1 -->
  <text
     y="-0.9999007"
     x="-2.0000501"
     id="text344"
     fill="currentColor"
     text-anchor="start"
     font-size="2.2001px"
     font-family="serif"><tspan
       id="tspan342" /></text>
  <rect
     id="rect346"
     fill="currentColor"
     ry="0.039999999"
     height="5.0039001"
     width="0.13"
     y="0.24009925"
     x="11.98665" />
  <a
     transform="translate(-7.69065,-3.8452007)"
     id="a350"
     xlink:href="textedit:///Users/jwy/Documents/GitHub/jwy_opus/public/pieces/sf003/notation/decel_feathered.ly:39:14:15"
     style="color:inherit">
    <path
       id="path348"
       fill="currentColor"
       d="m 218,136 c 55,0 108,-28 108,-89 0,-71 -55,-121 -102,-149 -35,-21 -75,-34 -116,-34 -55,0 -108,28 -108,89 0,71 55,121 102,149 35,21 75,34 116,34 z"
       transform="matrix(0.004,0,0,-0.004,9.2948,9.2753)" />
  </a>
  <rect
     id="rect352"
     fill="currentColor"
     ry="0.039999999"
     height="5.0039001"
     width="0.13"
     y="0.24009925"
     x="2.7783501" />
  <a
     transform="translate(-7.69065,-3.8452007)"
     id="a356"
     xlink:href="textedit:///Users/jwy/Documents/GitHub/jwy_opus/public/pieces/sf003/notation/decel_feathered.ly:39:20:21"
     style="color:inherit">
    <path
       id="path354"
       fill="currentColor"
       d="m 218,136 c 55,0 108,-28 108,-89 0,-71 -55,-121 -102,-149 -35,-21 -75,-34 -116,-34 -55,0 -108,28 -108,89 0,71 55,121 102,149 35,21 75,34 116,34 z"
       transform="matrix(0.004,0,0,-0.004,18.503,9.2753)" />
  </a>
  <a
     transform="translate(-7.69065,-3.8452007)"
     id="a360"
     xlink:href="textedit:///Users/jwy/Documents/GitHub/jwy_opus/public/pieces/sf003/notation/decel_feathered.ly:39:16:17"
     style="color:inherit">
    <path
       id="path358"
       fill="currentColor"
       d="m 218,136 c 55,0 108,-28 108,-89 0,-71 -55,-121 -102,-149 -35,-21 -75,-34 -116,-34 -55,0 -108,28 -108,89 0,71 55,121 102,149 35,21 75,34 116,34 z"
       transform="matrix(0.004,0,0,-0.004,10.899,9.2753)" />
  </a>
  <rect
     id="rect362"
     fill="currentColor"
     ry="0.039999999"
     height="5.0039001"
     width="0.13"
     y="0.24009925"
     x="4.3825502" />
  <a
     transform="translate(-7.69065,-3.8452007)"
     id="a366"
     xlink:href="textedit:///Users/jwy/Documents/GitHub/jwy_opus/public/pieces/sf003/notation/decel_feathered.ly:39:18:19"
     style="color:inherit">
    <path
       id="path364"
       fill="currentColor"
       d="m 218,136 c 55,0 108,-28 108,-89 0,-71 -55,-121 -102,-149 -35,-21 -75,-34 -116,-34 -55,0 -108,28 -108,89 0,71 55,121 102,149 35,21 75,34 116,34 z"
       transform="matrix(0.004,0,0,-0.004,13.6147,9.2753)" />
  </a>
  <a
     transform="translate(-7.69065,-3.8452007)"
     id="a376"
     xlink:href="textedit:///Users/jwy/Documents/GitHub/jwy_opus/public/pieces/sf003/notation/decel_feathered.ly:39:12:13"
     style="color:inherit">
    <polygon
       id="polygon368"
       points="0.04,-0.2 10.9025,-0.2 10.9025,0.2 0.04,0.2 "
       stroke="currentColor"
       fill="currentColor"
       stroke-width="0.08"
       stroke-linecap="round"
       stroke-linejoin="round"
       transform="translate(8.8648,4.0853)" />
    <polygon
       id="polygon370"
       points="0.04,-0.2 10.9025,-1.0733 10.9025,-0.6733 0.04,0.2 "
       stroke="currentColor"
       fill="currentColor"
       stroke-width="0.08"
       stroke-linecap="round"
       stroke-linejoin="round"
       transform="translate(8.8648,4.9586)" />
    <polygon
       id="polygon372"
       points="0.04,-0.2 10.9025,-1.9467 10.9025,-1.5467 0.04,0.2 "
       stroke="currentColor"
       fill="currentColor"
       stroke-width="0.08"
       stroke-linecap="round"
       stroke-linejoin="round"
       transform="translate(8.8648,5.8319)" />
    <polygon
       id="polygon374"
       points="0.04,-0.2 10.9025,-2.82 10.9025,-2.42 0.04,0.2 "
       stroke="currentColor"
       fill="currentColor"
       stroke-width="0.08"
       stroke-linecap="round"
       stroke-linejoin="round"
       transform="translate(8.8648,6.7053)" />
  </a>
  <a
     transform="translate(-7.69065,-3.8452007)"
     id="a380"
     xlink:href="textedit:///Users/jwy/Documents/GitHub/jwy_opus/public/pieces/sf003/notation/decel_feathered.ly:39:9:10"
     style="color:inherit">
    <path
       id="path378"
       fill="currentColor"
       d="m 218,136 c 55,0 108,-28 108,-89 0,-71 -55,-121 -102,-149 -35,-21 -75,-34 -116,-34 -55,0 -108,28 -108,89 0,71 55,121 102,149 35,21 75,34 116,34 z"
       transform="matrix(0.004,0,0,-0.004,7.6906,9.2753)" />
  </a>
  <rect
     id="rect382"
     fill="currentColor"
     ry="0.039999999"
     height="5.0039001"
     width="0.13"
     y="0.24009925"
     x="1.17415" />
  <rect
     id="rect384"
     fill="currentColor"
     ry="0.039999999"
     height="5.0039001"
     width="0.13"
     y="0.24009925"
     x="7.0982499" />
</svg>
